<svg width="97" height="23" viewBox="0 0 97 23" fill="none" xmlns="http://www.w3.org/2000/svg">
<path id="MDH" d="M22.2096 3.9375C21.6659 3.94613 21.1999 4.1403 20.8116 4.52001L19.6854 5.64618C19.3057 6.03452 19.1158 6.49621 19.1158 7.03125V22.5H16.0221V7.03125C16.0221 6.17691 15.7201 5.4477 15.116 4.84362C14.5119 4.23954 13.7827 3.9375 12.9283 3.9375H6.74085C6.19718 3.94613 5.73117 4.1403 5.34283 4.52001C4.97176 4.89108 4.59636 5.26648 4.21666 5.64618C3.84558 6.03452 3.65573 6.49621 3.6471 7.03125V22.5H0.553347V7.03125C0.553347 6.60839 0.704367 6.24595 1.00641 5.94391C1.30845 5.64187 1.67089 5.49085 2.09375 5.49085C2.63742 5.48222 3.10343 5.28805 3.49176 4.90834C3.86284 4.53726 4.23823 4.16187 4.61794 3.78217C4.99765 3.37657 5.1875 2.91488 5.1875 2.3971C5.1875 1.96561 5.33852 1.59885 5.64056 1.29681C5.9426 0.99477 6.30936 0.84375 6.74085 0.84375H12.9283C14.3091 0.869639 15.5216 1.26661 16.5658 2.03465C17.61 2.80269 18.3521 3.81237 18.7922 5.06368L20.0867 3.78217C20.4664 3.37657 20.6562 2.91488 20.6562 2.3971C20.6562 1.96561 20.8073 1.59885 21.1093 1.29681C21.4113 0.99477 21.7781 0.84375 22.2096 0.84375H28.3842C30.0842 0.869639 31.5426 1.47372 32.7594 2.65599C33.9676 3.93319 34.5717 5.39161 34.5717 7.03125C34.5717 17.3438 34.5717 22.5 34.5717 22.5H31.4779V7.03125C31.4779 6.17691 31.1759 5.4477 30.5718 4.84362C29.9677 4.23954 29.2385 3.9375 28.3842 3.9375H22.2096ZM59.3346 22.5H37.6783V0.84375H59.3346C60.4737 0.84375 61.5093 1.12422 62.4413 1.68515C63.3733 2.23745 64.1155 2.98392 64.6678 3.92456C65.2287 4.85656 65.5092 5.89213 65.5092 7.03125V16.3125C65.5092 16.744 65.3581 17.1107 65.0561 17.4128C64.7541 17.7148 64.3916 17.8658 63.9687 17.8658C63.4251 17.8658 62.9591 18.0557 62.5707 18.4354C62.1997 18.8151 61.8286 19.1905 61.4575 19.5616C61.0692 19.9672 60.875 20.4332 60.875 20.9596C60.875 21.3825 60.724 21.7449 60.4219 22.0469C60.1199 22.349 59.7575 22.5 59.3346 22.5ZM62.4154 16.3125C62.4154 10.125 62.4154 7.03125 62.4154 7.03125C62.4154 6.21143 62.1134 5.48222 61.5093 4.84362C60.8793 4.23954 60.1544 3.9375 59.3346 3.9375H40.7721V19.4063H59.3346C59.8696 19.3976 60.3313 19.2078 60.7197 18.8367C61.0994 18.457 61.4748 18.0816 61.8458 17.7105C62.2255 17.3049 62.4154 16.8389 62.4154 16.3125ZM71.7096 14.0343L72.6804 13.0634C73.0601 12.6578 73.25 12.1961 73.25 11.6783C73.25 11.2469 73.401 10.8801 73.7031 10.5781C74.0051 10.276 74.3719 10.125 74.8033 10.125H90.2721C90.8071 10.1164 91.2688 9.92652 91.6572 9.55544C92.0369 9.17573 92.4123 8.80034 92.7833 8.42926C93.1458 8.05819 93.3356 7.61376 93.3529 7.09597V0.84375H96.4467V22.5H93.3529V9.30949L92.395 10.2803C92.0067 10.6859 91.8125 11.1519 91.8125 11.6783C91.8125 12.1012 91.6615 12.4637 91.3594 12.7657C91.0574 13.0677 90.695 13.2188 90.2721 13.2188H74.8033C74.2597 13.2274 73.7937 13.4215 73.4053 13.8013C73.0343 14.1723 72.6589 14.5477 72.2792 14.9274C71.9081 15.3071 71.7182 15.7688 71.7096 16.3125V22.5H68.6158V0.84375H71.7096V14.0343Z" fill="#EFE5D7"/>
</svg>
